<svg xmlns="http://www.w3.org/2000/svg" version="1.1" xmlns:xlink="http://www.w3.org/1999/xlink" xmlns:svgjs="http://svgjs.dev/svgjs" width="2000" height="2000" viewBox="0 0 2000 2000"><g transform="matrix(1,0,0,1,-0.11629056330161802,-0.11629056330173171)"><svg viewBox="0 0 334 334" data-background-color="#ffffff" preserveAspectRatio="xMidYMid meet" height="2000" width="2000" xmlns="http://www.w3.org/2000/svg" xmlns:xlink="http://www.w3.org/1999/xlink"><g id="tight-bounds" transform="matrix(1,0,0,1,0.019420524071364298,0.01942052407139272)"><svg viewBox="0 0 333.96115895185727 333.96115895185727" height="333.96115895185727" width="333.96115895185727"><g><svg></svg></g><g><svg viewBox="0 0 333.96115895185727 333.96115895185727" height="333.96115895185727" width="333.96115895185727"><g><path d="M0 166.981c0-92.221 74.76-166.981 166.981-166.981 92.221 0 166.981 74.76 166.98 166.981 0 92.221-74.76 166.981-166.98 166.98-92.221 0-166.981-74.76-166.981-166.98zM166.981 316.686c82.68 0 149.706-67.025 149.705-149.705 0-82.68-67.025-149.706-149.705-149.706-82.68 0-149.706 67.025-149.706 149.706 0 82.68 67.025 149.706 149.706 149.705z" data-fill-palette-color="tertiary" fill="#915eff" stroke="transparent"></path><ellipse rx="160.3013562968915" ry="160.3013562968915" cx="166.98057947592864" cy="166.98057947592864" fill="#915eff" stroke="transparent" stroke-width="0" fill-opacity="1" data-fill-palette-color="tertiary"></ellipse></g><g transform="matrix(1,0,0,1,63.54458977260178,71.20135886235008)"><svg viewBox="0 0 206.8719794066537 191.55844122715712" height="191.55844122715712" width="206.8719794066537"><g><svg viewBox="0 0 206.8719794066537 191.55844122715712" height="191.55844122715712" width="206.8719794066537"><g><svg viewBox="0 0 206.8719794066537 191.55844122715712" height="191.55844122715712" width="206.8719794066537"><g><svg viewBox="0 0 206.8719794066537 191.55844122715712" height="191.55844122715712" width="206.8719794066537"><g id="textblocktransform"><svg viewBox="0 0 206.8719794066537 191.55844122715712" height="191.55844122715712" width="206.8719794066537" id="textblock"><g><svg viewBox="0 0 206.8719794066537 191.55844122715712" height="191.55844122715712" width="206.8719794066537"><g transform="matrix(1,0,0,1,0,0)"><svg width="206.8719794066537" viewBox="0.85 -34.4 37.15 34.4" height="191.55844122715712" data-palette-color="#ffffff"><path d="M25.85 0L13.05 0 0.85-34.4 12.65-34.4 19.55-11.4 19.75-11.4 26.7-34.4 38-34.4 25.85 0Z" opacity="1" transform="matrix(1,0,0,1,0,0)" fill="#ffffff" class="wordmark-text-0" data-fill-palette-color="quaternary" id="text-0"></path></svg></g></svg></g></svg></g></svg></g><g></g></svg></g></svg></g></svg></g></svg></g><defs></defs></svg><rect width="333.96115895185727" height="333.96115895185727" fill="none" stroke="none" visibility="hidden"></rect></g></svg></g></svg>